<?xml version="1.0" encoding="UTF-8" standalone="no"?>
<svg
   xmlns:dc="http://purl.org/dc/elements/1.1/"
   xmlns:cc="http://creativecommons.org/ns#"
   xmlns:rdf="http://www.w3.org/1999/02/22-rdf-syntax-ns#"
   xmlns:svg="http://www.w3.org/2000/svg"
   xmlns="http://www.w3.org/2000/svg"
   xmlns:sodipodi="http://sodipodi.sourceforge.net/DTD/sodipodi-0.dtd"
   xmlns:inkscape="http://www.inkscape.org/namespaces/inkscape"
   version="1.1"
   width="1122"
   height="455.5"
   id="svg2"
   inkscape:version="0.91 r13725"
   sodipodi:docname="simucos-architecture-overview.svg">
  <metadata
     id="metadata356">
    <rdf:RDF>
      <cc:Work
         rdf:about="">
        <dc:format>image/svg+xml</dc:format>
        <dc:type
           rdf:resource="http://purl.org/dc/dcmitype/StillImage" />
        <dc:title></dc:title>
      </cc:Work>
    </rdf:RDF>
  </metadata>
  <sodipodi:namedview
     pagecolor="#ffffff"
     bordercolor="#666666"
     borderopacity="1"
     objecttolerance="10"
     gridtolerance="10"
     guidetolerance="10"
     inkscape:pageopacity="0"
     inkscape:pageshadow="2"
     inkscape:window-width="1280"
     inkscape:window-height="1001"
     id="namedview354"
     showgrid="false"
     inkscape:zoom="0.62388592"
     inkscape:cx="518.15822"
     inkscape:cy="455.931"
     inkscape:window-x="-8"
     inkscape:window-y="48"
     inkscape:window-maximized="1"
     inkscape:current-layer="g6"
     fit-margin-top="0"
     fit-margin-left="0"
     fit-margin-right="0"
     fit-margin-bottom="0" />
  <defs
     id="defs4" />
  <g
     id="g6">
    <g
       id="g8">
      <rect
         x="0"
         y="0"
         width="1122"
         height="455.5"
         id="rect10"
         style="fill:#ffffff;stroke:none" />
    </g>
    <g
       transform="translate(38.25,38.5)"
       id="g12">
      <g
         id="g14">
        <g
           transform="scale(1.8,3.975)"
           id="g16">
          <g
             id="g18">
            <path
               d="m 0,0 100,0 q 0,0 0,0 l 0,100 q 0,0 0,0 L 0,100 q 0,0 0,0 L 0,0 q 0,0 0,0 z"
               id="path20"
               inkscape:connector-curvature="0"
               style="fill:#000000;fill-opacity:0;stroke:none" />
            <g
               transform="scale(0.55555556,0.25157233)"
               id="g22">
              <path
                 d="m 0,0 180,0 q 0,0 0,0 l 0,397.5 q 0,0 0,0 l -180,0 q 0,0 0,0 L 0,0 q 0,0 0,0 z"
                 stroke-miterlimit="10"
                 id="path24"
                 inkscape:connector-curvature="0"
                 style="fill:none;stroke:#000000;stroke-miterlimit:10" />
            </g>
          </g>
        </g>
      </g>
    </g>
    <g
       transform="translate(38.25,38.5)"
       id="g26">
      <g
         id="g28">
        <g
           transform="scale(1.45,0.8)"
           id="g30">
          <g
             id="g32">
            <g
               transform="scale(0.68965517,1.25)"
               id="g34">
              <path
                 d="M 0,0 145,0 145,26.4 130.5,32 0,32 0,0 Z"
                 stroke-miterlimit="10"
                 id="path36"
                 inkscape:connector-curvature="0"
                 style="fill:#ffffff;stroke:#000000;stroke-miterlimit:10" />
            </g>
          </g>
        </g>
      </g>
    </g>
    <g
       transform="translate(39.75,42)"
       id="g38">
      <text
         font-size="12px"
         font-style="normal"
         font-weight="bold"
         text-decoration="none"
         x="0"
         y="11"
         id="text40"
         style="font-style:normal;font-weight:bold;font-size:12px;font-family:Arial;text-decoration:none;text-decoration-line:none;fill:#000000;stroke:none">Kurento media server</text>
      <text
         font-size="12px"
         font-style="normal"
         font-weight="bold"
         text-decoration="none"
         x="0"
         y="25"
         id="text42"
         style="font-style:normal;font-weight:bold;font-size:12px;font-family:Arial;text-decoration:none;text-decoration-line:none;fill:#000000;stroke:none">(C++)</text>
    </g>
    <g
       transform="translate(38.25,53.5)"
       id="g44">
      <g
         id="g46">
        <g
           transform="scale(0.01065449,3.655)"
           id="g48">
          <g
             id="g50">
            <path
               d="m 0,0 100,0 q 0,0 0,0 l 0,100 q 0,0 0,0 L 0,100 q 0,0 0,0 L 0,0 q 0,0 0,0 z"
               id="path52"
               inkscape:connector-curvature="0"
               style="fill:#000000;fill-opacity:0;stroke:none" />
            <g
               transform="scale(93.857143,0.27359781)"
               id="g54">
              <path
                 stroke="rbga(0,0,0,0)"
                 d="m 0,0 1.065449,0 q 0,0 0,0 l 0,365.5 q 0,0 0,0 L 0,365.5 q 0,0 0,0 L 0,0 q 0,0 0,0 z"
                 stroke-miterlimit="10"
                 id="path56"
                 inkscape:connector-curvature="0"
                 style="fill:none;stroke-miterlimit:10" />
            </g>
          </g>
        </g>
      </g>
    </g>
    <g
       transform="translate(395,38.5)"
       id="g58">
      <g
         id="g60">
        <g
           transform="scale(2.24,2.74)"
           id="g62">
          <g
             id="g64">
            <path
               d="m 0,0 100,0 q 0,0 0,0 l 0,100 q 0,0 0,0 L 0,100 q 0,0 0,0 L 0,0 q 0,0 0,0 z"
               id="path66"
               inkscape:connector-curvature="0"
               style="fill:#000000;fill-opacity:0;stroke:none" />
            <g
               transform="scale(0.44642857,0.3649635)"
               id="g68">
              <path
                 d="m 0,0 224,0 q 0,0 0,0 l 0,274 q 0,0 0,0 L 0,274 q 0,0 0,0 L 0,0 q 0,0 0,0 z"
                 stroke-miterlimit="10"
                 id="path70"
                 inkscape:connector-curvature="0"
                 style="fill:none;stroke:#000000;stroke-miterlimit:10" />
            </g>
          </g>
        </g>
      </g>
    </g>
    <g
       transform="translate(395,38.5)"
       id="g72">
      <g
         id="g74">
        <g
           transform="scale(0.69,0.8)"
           id="g76">
          <g
             id="g78">
            <g
               transform="scale(1.4492754,1.25)"
               id="g80">
              <path
                 d="M 0,0 69,0 69,26.4 62.1,32 0,32 0,0 Z"
                 stroke-miterlimit="10"
                 id="path82"
                 inkscape:connector-curvature="0"
                 style="fill:#ffffff;stroke:#000000;stroke-miterlimit:10" />
            </g>
          </g>
        </g>
      </g>
    </g>
    <g
       transform="translate(396.5,42)"
       id="g84">
      <text
         font-size="12px"
         font-style="normal"
         font-weight="bold"
         text-decoration="none"
         x="0"
         y="11"
         id="text86"
         style="font-style:normal;font-weight:bold;font-size:12px;font-family:Arial;text-decoration:none;text-decoration-line:none;fill:#000000;stroke:none">simucos</text>
      <text
         font-size="12px"
         font-style="normal"
         font-weight="bold"
         text-decoration="none"
         x="0"
         y="25"
         id="text88"
         style="font-style:normal;font-weight:bold;font-size:12px;font-family:Arial;text-decoration:none;text-decoration-line:none;fill:#000000;stroke:none">(node.js)</text>
    </g>
    <g
       transform="translate(395,53.5)"
       id="g90">
      <g
         id="g92">
        <g
           transform="scale(0.02051692,2.42)"
           id="g94">
          <g
             id="g96">
            <path
               d="m 0,0 100,0 q 0,0 0,0 l 0,100 q 0,0 0,0 L 0,100 q 0,0 0,0 L 0,0 q 0,0 0,0 z"
               id="path98"
               inkscape:connector-curvature="0"
               style="fill:#000000;fill-opacity:0;stroke:none" />
            <g
               transform="scale(48.74026,0.41322314)"
               id="g100">
              <path
                 stroke="rbga(0,0,0,0)"
                 d="m 0,0 2.051692,0 q 0,0 0,0 l 0,242 q 0,0 0,0 L 0,242 q 0,0 0,0 L 0,0 q 0,0 0,0 z"
                 stroke-miterlimit="10"
                 id="path102"
                 inkscape:connector-curvature="0"
                 style="fill:none;stroke-miterlimit:10" />
            </g>
          </g>
        </g>
      </g>
    </g>
    <g
       transform="translate(796.5,38.5)"
       id="g104">
      <g
         id="g106">
        <g
           transform="scale(3.06,3.975)"
           id="g108">
          <g
             id="g110">
            <path
               d="m 0,0 100,0 q 0,0 0,0 l 0,100 q 0,0 0,0 L 0,100 q 0,0 0,0 L 0,0 q 0,0 0,0 z"
               id="path112"
               inkscape:connector-curvature="0"
               style="fill:#000000;fill-opacity:0;stroke:none" />
            <g
               transform="scale(0.32679739,0.25157233)"
               id="g114">
              <path
                 d="m 0,0 306,0 q 0,0 0,0 l 0,397.5 q 0,0 0,0 l -306,0 q 0,0 0,0 L 0,0 q 0,0 0,0 z"
                 stroke-miterlimit="10"
                 id="path116"
                 inkscape:connector-curvature="0"
                 style="fill:none;stroke:#000000;stroke-miterlimit:10" />
            </g>
          </g>
        </g>
      </g>
    </g>
    <g
       transform="translate(796.5,38.5)"
       id="g118">
      <g
         id="g120">
        <g
           transform="scale(0.96,0.8)"
           id="g122">
          <g
             id="g124">
            <g
               transform="scale(1.0416667,1.25)"
               id="g126">
              <path
                 d="M 0,0 96,0 96,26.4 86.4,32 0,32 0,0 Z"
                 stroke-miterlimit="10"
                 id="path128"
                 inkscape:connector-curvature="0"
                 style="fill:#ffffff;stroke:#000000;stroke-miterlimit:10" />
            </g>
          </g>
        </g>
      </g>
    </g>
    <g
       transform="translate(798,42)"
       id="g130">
      <text
         font-size="12px"
         font-style="normal"
         font-weight="bold"
         text-decoration="none"
         x="0"
         y="11"
         id="text132"
         style="font-style:normal;font-weight:bold;font-size:12px;font-family:Arial;text-decoration:none;text-decoration-line:none;fill:#000000;stroke:none">Client</text>
      <text
         font-size="12px"
         font-style="normal"
         font-weight="bold"
         text-decoration="none"
         x="0"
         y="25"
         id="text134"
         style="font-style:normal;font-weight:bold;font-size:12px;font-family:Arial;text-decoration:none;text-decoration-line:none;fill:#000000;stroke:none">(HTML and js)</text>
    </g>
    <g
       transform="translate(796.5,53.5)"
       id="g136">
      <g
         id="g138">
        <g
           transform="scale(0.02718041,3.655)"
           id="g140">
          <g
             id="g142">
            <path
               d="m 0,0 100,0 q 0,0 0,0 l 0,100 q 0,0 0,0 L 0,100 q 0,0 0,0 L 0,0 q 0,0 0,0 z"
               id="path144"
               inkscape:connector-curvature="0"
               style="fill:#000000;fill-opacity:0;stroke:none" />
            <g
               transform="scale(36.791209,0.27359781)"
               id="g146">
              <path
                 stroke="rbga(0,0,0,0)"
                 d="m 0,0 2.7180406,0 q 0,0 0,0 l 0,365.5 q 0,0 0,0 L 0,365.5 q 0,0 0,0 L 0,0 q 0,0 0,0 z"
                 stroke-miterlimit="10"
                 id="path148"
                 inkscape:connector-curvature="0"
                 style="fill:none;stroke-miterlimit:10" />
            </g>
          </g>
        </g>
      </g>
    </g>
    <g
       transform="translate(598.5,165)"
       id="g150">
      <g
         id="g152">
        <g
           transform="scale(2.1,0.5)"
           id="g154">
          <g
             id="g156">
            <g
               transform="scale(0.47619048,2)"
               id="g158">
              <path
                 d="M 0,25 25,0 25,15 185,15 185,0 210,25 185,50 185,35 25,35 25,50 0,25 Z"
                 id="path160"
                 inkscape:connector-curvature="0"
                 style="fill:#d1d693;stroke:none" />
              <path
                 d="m 0,25 m 0,0 25,-25 0,15 160,0 0,-15 25,25 -25,25 0,-15 L 25,35 25,50 0,25 Z"
                 stroke-miterlimit="10"
                 id="path162"
                 inkscape:connector-curvature="0"
                 style="fill:none;stroke:#b2b973;stroke-width:2;stroke-miterlimit:10" />
            </g>
          </g>
        </g>
      </g>
    </g>
    <g
       transform="translate(610.7,183)"
       id="g164">
      <text
         font-size="12px"
         font-style="normal"
         font-weight="bold"
         text-decoration="none"
         x="15.8"
         y="11"
         id="text166"
         style="font-style:normal;font-weight:bold;font-size:12px;font-family:Arial;text-decoration:none;text-decoration-line:none;fill:#000000;stroke:none">websocket communication</text>
    </g>
    <g
       transform="translate(203.5,128)"
       id="g168">
      <g
         id="g170">
        <g
           transform="scale(2.1,0.5)"
           id="g172">
          <g
             id="g174">
            <g
               transform="scale(0.47619048,2)"
               id="g176">
              <path
                 d="M 0,25 25,0 25,15 185,15 185,0 210,25 185,50 185,35 25,35 25,50 0,25 Z"
                 id="path178"
                 inkscape:connector-curvature="0"
                 style="fill:#d1d693;stroke:none" />
              <path
                 d="m 0,25 m 0,0 25,-25 0,15 160,0 0,-15 25,25 -25,25 0,-15 L 25,35 25,50 0,25 Z"
                 stroke-miterlimit="10"
                 id="path180"
                 inkscape:connector-curvature="0"
                 style="fill:none;stroke:#b2b973;stroke-width:2;stroke-miterlimit:10" />
            </g>
          </g>
        </g>
      </g>
    </g>
    <g
       transform="translate(215.7,146)"
       id="g182">
      <text
         font-size="12px"
         font-style="normal"
         font-weight="bold"
         text-decoration="none"
         x="15.8"
         y="11"
         id="text184"
         style="font-style:normal;font-weight:bold;font-size:12px;font-family:Arial;text-decoration:none;text-decoration-line:none;fill:#000000;stroke:none">websocket communication</text>
    </g>
    <g
       transform="translate(830,340)"
       id="g186">
      <g
         id="g188">
        <g
           transform="scale(1,0.6)"
           id="g190">
          <g
             id="g192">
            <path
               d="m 0,0 100,0 q 0,0 0,0 l 0,100 q 0,0 0,0 L 0,100 q 0,0 0,0 L 0,0 q 0,0 0,0 z"
               id="path194"
               inkscape:connector-curvature="0"
               style="fill:#4b8598;stroke:none" />
            <g
               transform="scale(1,1.6666667)"
               id="g196">
              <path
                 d="m 0,0 100,0 q 0,0 0,0 l 0,60 q 0,0 0,0 L 0,60 q 0,0 0,0 L 0,0 q 0,0 0,0 z"
                 id="path198"
                 inkscape:connector-curvature="0"
                 style="fill:none;stroke:none" />
              <path
                 d="m 0,0 m 0,0 100,0 q 0,0 0,0 l 0,60 q 0,0 0,0 L 0,60 q 0,0 0,0 L 0,0 q 0,0 0,0 z"
                 stroke-miterlimit="10"
                 id="path200"
                 inkscape:connector-curvature="0"
                 style="fill:none;stroke:#2a5666;stroke-width:2;stroke-miterlimit:10" />
            </g>
          </g>
        </g>
      </g>
    </g>
    <g
       transform="translate(840,349)"
       id="g202">
      <text
         font-size="12px"
         font-style="normal"
         font-weight="bold"
         text-decoration="none"
         x="25.5"
         y="11"
         id="text204"
         style="font-style:normal;font-weight:bold;font-size:12px;font-family:Arial;text-decoration:none;text-decoration-line:none;fill:#ffffff;stroke:none">peer</text>
      <text
         font-size="12px"
         font-style="normal"
         font-weight="bold"
         text-decoration="none"
         x="7"
         y="25"
         id="text206"
         style="font-style:normal;font-weight:bold;font-size:12px;font-family:Arial;text-decoration:none;text-decoration-line:none;fill:#ffffff;stroke:none">connection</text>
      <text
         font-size="12px"
         font-style="normal"
         font-weight="bold"
         text-decoration="none"
         x="19"
         y="39"
         id="text208"
         style="font-style:normal;font-weight:bold;font-size:12px;font-family:Arial;text-decoration:none;text-decoration-line:none;fill:#ffffff;stroke:none">objects</text>
    </g>
    <g
       transform="translate(84.5,340)"
       id="g210">
      <g
         id="g212">
        <g
           transform="scale(1,0.6)"
           id="g214">
          <g
             id="g216">
            <path
               d="m 0,0 100,0 q 0,0 0,0 l 0,100 q 0,0 0,0 L 0,100 q 0,0 0,0 L 0,0 q 0,0 0,0 z"
               id="path218"
               inkscape:connector-curvature="0"
               style="fill:#4b8598;stroke:none" />
            <g
               transform="scale(1,1.6666667)"
               id="g220">
              <path
                 d="m 0,0 100,0 q 0,0 0,0 l 0,60 q 0,0 0,0 L 0,60 q 0,0 0,0 L 0,0 q 0,0 0,0 z"
                 id="path222"
                 inkscape:connector-curvature="0"
                 style="fill:none;stroke:none" />
              <path
                 d="m 0,0 m 0,0 100,0 q 0,0 0,0 l 0,60 q 0,0 0,0 L 0,60 q 0,0 0,0 L 0,0 q 0,0 0,0 z"
                 stroke-miterlimit="10"
                 id="path224"
                 inkscape:connector-curvature="0"
                 style="fill:none;stroke:#2a5666;stroke-width:2;stroke-miterlimit:10" />
            </g>
          </g>
        </g>
      </g>
    </g>
    <g
       transform="translate(94.5,356)"
       id="g226">
      <text
         font-size="12px"
         font-style="normal"
         font-weight="bold"
         text-decoration="none"
         x="15"
         y="11"
         id="text228"
         style="font-style:normal;font-weight:bold;font-size:12px;font-family:Arial;text-decoration:none;text-decoration-line:none;fill:#ffffff;stroke:none">webRTC</text>
      <text
         font-size="12px"
         font-style="normal"
         font-weight="bold"
         text-decoration="none"
         x="12"
         y="25"
         id="text230"
         style="font-style:normal;font-weight:bold;font-size:12px;font-family:Arial;text-decoration:none;text-decoration-line:none;fill:#ffffff;stroke:none">endpoints</text>
    </g>
    <g
       transform="matrix(1.0737016,0,0,0.99948672,244.01796,190.51796)"
       id="g232">
      <g
         id="g234">
        <g
           transform="scale(1.3,0.7)"
           id="g236">
          <g
             id="g238">
            <g
               transform="scale(0.76923077,1.4285714)"
               id="g240">
              <path
                 d="m 0,0 120,0 10,10 -10,0 0,-10 10,10 0,60 -130,0 z"
                 stroke-miterlimit="10"
                 id="path242"
                 inkscape:connector-curvature="0"
                 style="fill:#ffffff;stroke:#000000;stroke-linejoin:round;stroke-miterlimit:10" />
            </g>
          </g>
        </g>
      </g>
    </g>
    <g
       transform="translate(253.35714,197)"
       id="g244">
      <text
         font-size="12px"
         font-style="normal"
         font-weight="normal"
         text-decoration="none"
         x="0"
         y="11"
         id="text246"
         style="font-style:normal;font-weight:normal;font-size:12px;font-family:Arial;text-decoration:none;text-decoration-line:none;fill:#000000;stroke:none">create rooms,</text>
      <text
         font-size="12px"
         font-style="normal"
         font-weight="normal"
         text-decoration="none"
         x="0"
         y="25"
         id="text248"
         style="font-style:normal;font-weight:normal;font-size:12px;font-family:Arial;text-decoration:none;text-decoration-line:none;fill:#000000;stroke:none">webRTC endpoints,</text>
      <text
         font-size="12px"
         font-style="normal"
         font-weight="normal"
         text-decoration="none"
         x="0"
         y="39"
         id="text250"
         style="font-style:normal;font-weight:normal;font-size:12px;font-family:Arial;text-decoration:none;text-decoration-line:none;fill:#000000;stroke:none">communication</text>
      <text
         font-size="12px"
         font-style="normal"
         font-weight="normal"
         text-decoration="none"
         x="81.745712"
         y="39"
         id="text252"
         style="font-style:normal;font-weight:normal;font-size:12px;font-family:Arial;text-decoration:none;text-decoration-line:none;fill:#000000;stroke:none">hubs</text>
      <text
         font-size="12px"
         font-style="normal"
         font-weight="normal"
         text-decoration="none"
         x="0"
         y="53"
         id="text254"
         style="font-style:normal;font-weight:normal;font-size:12px;font-family:Arial;text-decoration:none;text-decoration-line:none;fill:#000000;stroke:none">and process SDP</text>
    </g>
    <g
       transform="translate(598.5,103)"
       id="g256">
      <g
         id="g258">
        <g
           transform="scale(2.1,0.5)"
           id="g260">
          <g
             id="g262">
            <g
               transform="scale(0.47619048,2)"
               id="g264">
              <path
                 d="m 0,15 185,0 0,-15 25,25 -25,25 0,-15 L 0,35 0,15 Z"
                 id="path266"
                 inkscape:connector-curvature="0"
                 style="fill:#d1d693;stroke:none" />
              <path
                 d="m 0,15 m 0,0 185,0 0,-15 25,25 -25,25 0,-15 L 0,35 0,15 Z"
                 stroke-miterlimit="10"
                 id="path268"
                 inkscape:connector-curvature="0"
                 style="fill:none;stroke:#b2b973;stroke-width:2;stroke-miterlimit:10" />
            </g>
          </g>
        </g>
      </g>
    </g>
    <g
       transform="translate(610.7,121)"
       id="g270">
      <text
         font-size="12px"
         font-style="normal"
         font-weight="bold"
         text-decoration="none"
         x="76.800003"
         y="11"
         id="text272"
         style="font-style:normal;font-weight:bold;font-size:12px;font-family:Arial;text-decoration:none;text-decoration-line:none;fill:#000000;stroke:none">serve</text>
    </g>
    <g
       transform="translate(658.5,10)"
       id="g274">
      <g
         id="g276">
        <g
           id="g278">
          <g
             transform="scale(0.81,0.72)"
             id="g280">
            <g
               id="g282">
              <g
                 transform="scale(1.2345679,1.3888889)"
                 id="g284">
                <path
                   d="m 0,0 81,0 0,72 Q 60.75,54 40.5,72 20.25,90 0,72 L 0,0 Z"
                   id="path286"
                   inkscape:connector-curvature="0"
                   style="fill:#4b8598;stroke:none" />
                <path
                   d="m 0,0 m 0,0 81,0 0,72 Q 60.75,54 40.5,72 20.25,90 0,72 L 0,0 Z"
                   stroke-miterlimit="10"
                   id="path288"
                   inkscape:connector-curvature="0"
                   style="fill:none;stroke:#2a5666;stroke-width:2;stroke-miterlimit:10" />
              </g>
            </g>
            <g
               transform="translate(11.5,13.25)"
               id="g290">
              <g
                 id="g292">
                <g
                   transform="scale(1.2345679,1.3888889)"
                   id="g294">
                  <path
                     d="m 0,0 81,0 0,72 Q 60.75,54 40.5,72 20.25,90 0,72 L 0,0 Z"
                     id="path296"
                     inkscape:connector-curvature="0"
                     style="fill:#4b8598;stroke:none" />
                  <path
                     d="m 0,0 m 0,0 81,0 0,72 Q 60.75,54 40.5,72 20.25,90 0,72 L 0,0 Z"
                     stroke-miterlimit="10"
                     id="path298"
                     inkscape:connector-curvature="0"
                     style="fill:none;stroke:#2a5666;stroke-width:2;stroke-miterlimit:10" />
                </g>
              </g>
            </g>
            <g
               transform="translate(23,26.5)"
               id="g300">
              <g
                 id="g302">
                <g
                   transform="scale(1.2345679,1.3888889)"
                   id="g304">
                  <path
                     d="m 0,0 81,0 0,72 Q 60.75,54 40.5,72 20.25,90 0,72 L 0,0 Z"
                     id="path306"
                     inkscape:connector-curvature="0"
                     style="fill:#4b8598;stroke:none" />
                  <path
                     d="m 0,0 m 0,0 81,0 0,72 Q 60.75,54 40.5,72 20.25,90 0,72 L 0,0 Z"
                     stroke-miterlimit="10"
                     id="path308"
                     inkscape:connector-curvature="0"
                     style="fill:none;stroke:#2a5666;stroke-width:2;stroke-miterlimit:10" />
                </g>
              </g>
            </g>
          </g>
        </g>
      </g>
    </g>
    <g
       transform="translate(668.5,53)"
       id="g310">
      <text
         font-size="12px"
         font-style="normal"
         font-weight="bold"
         text-decoration="none"
         x="10.5"
         y="11"
         id="text312"
         style="font-style:normal;font-weight:bold;font-size:12px;font-family:Arial;text-decoration:none;text-decoration-line:none;fill:#ffffff;stroke:none">static files</text>
    </g>
    <g
       transform="translate(629,223.5)"
       id="g314">
      <g
         id="g316">
        <g
           transform="scale(1.6,0.5)"
           id="g318">
          <g
             id="g320">
            <g
               transform="scale(0.625,2)"
               id="g322">
              <path
                 d="m 0,0 150,0 10,10 -10,0 0,-10 10,10 0,40 -160,0 z"
                 stroke-miterlimit="10"
                 id="path324"
                 inkscape:connector-curvature="0"
                 style="fill:#ffffff;stroke:#000000;stroke-linejoin:round;stroke-miterlimit:10" />
            </g>
          </g>
        </g>
      </g>
    </g>
    <g
       transform="translate(638.78571,227)"
       id="g326">
      <text
         font-size="12px"
         font-style="normal"
         font-weight="normal"
         text-decoration="none"
         x="0"
         y="11"
         id="text328"
         style="font-style:normal;font-weight:normal;font-size:12px;font-family:Arial;text-decoration:none;text-decoration-line:none;fill:#000000;stroke:none">j</text>
      <text
         font-size="12px"
         font-style="normal"
         font-weight="normal"
         text-decoration="none"
         x="3"
         y="11"
         id="text330"
         style="font-style:normal;font-weight:normal;font-size:12px;font-family:Arial;text-decoration:none;text-decoration-line:none;fill:#000000;stroke:none">oin room,</text>
      <text
         font-size="12px"
         font-style="normal"
         font-weight="normal"
         text-decoration="none"
         x="0"
         y="25"
         id="text332"
         style="font-style:normal;font-weight:normal;font-size:12px;font-family:Arial;text-decoration:none;text-decoration-line:none;fill:#000000;stroke:none">participants list,</text>
      <text
         font-size="12px"
         font-style="normal"
         font-weight="normal"
         text-decoration="none"
         x="0"
         y="39"
         id="text334"
         style="font-style:normal;font-weight:normal;font-size:12px;font-family:Arial;text-decoration:none;text-decoration-line:none;fill:#000000;stroke:none">SDP offers and answer</text>
    </g>
    <g
       transform="translate(176.5,346)"
       id="g336">
      <g
         id="g338">
        <g
           transform="scale(6.6,0.5)"
           id="g340">
          <g
             id="g342">
            <g
               transform="scale(0.15151515,2)"
               id="g344">
              <path
                 d="M 0,25 25,0 25,15 635,15 635,0 660,25 635,50 635,35 25,35 25,50 0,25 Z"
                 id="path346"
                 inkscape:connector-curvature="0"
                 style="fill:#d1d693;stroke:none" />
              <path
                 d="m 0,25 m 0,0 25,-25 0,15 610,0 0,-15 25,25 -25,25 0,-15 L 25,35 25,50 0,25 Z"
                 stroke-miterlimit="10"
                 id="path348"
                 inkscape:connector-curvature="0"
                 style="fill:none;stroke:#b2b973;stroke-width:2;stroke-miterlimit:10" />
            </g>
          </g>
        </g>
      </g>
    </g>
    <g
       transform="translate(197.7,364)"
       id="g350">
      <text
         font-size="12px"
         font-style="normal"
         font-weight="bold"
         text-decoration="none"
         x="243.3"
         y="11"
         id="text352"
         style="font-style:normal;font-weight:bold;font-size:12px;font-family:Arial;text-decoration:none;text-decoration-line:none;fill:#000000;stroke:none">webrtc communication</text>
    </g>
  </g>
</svg>
